<svg width="24" height="24" viewBox="0 0 24 24" fill="none" xmlns="http://www.w3.org/2000/svg">
<path d="M9.67266 16.3241L15.4383 12.1522C15.5414 12.0772 15.5414 11.9249 15.4383 11.8499L9.67266 7.67803C9.54844 7.58897 9.375 7.67803 9.375 7.83037V8.92959C9.375 9.16866 9.48984 9.396 9.68438 9.53662L13.0922 11.9999L9.68438 14.4655C9.48984 14.6062 9.375 14.8312 9.375 15.0726V16.1718C9.375 16.3241 9.54844 16.4132 9.67266 16.3241Z" fill="#2C2A27"/>
<path d="M20.625 2.625H3.375C2.96016 2.625 2.625 2.96016 2.625 3.375V20.625C2.625 21.0398 2.96016 21.375 3.375 21.375H20.625C21.0398 21.375 21.375 21.0398 21.375 20.625V3.375C21.375 2.96016 21.0398 2.625 20.625 2.625ZM19.6875 19.6875H4.3125V4.3125H19.6875V19.6875Z" fill="#2C2A27"/>
</svg>
