<svg width="24" height="24" viewBox="0 0 24 24" fill="none" xmlns="http://www.w3.org/2000/svg">
<path d="M8.56174 12.1524L14.3274 16.3243C14.4516 16.4133 14.625 16.3243 14.625 16.1719V15.0727C14.625 14.8336 14.5102 14.6063 14.3156 14.4657L10.9078 12.0001L14.3156 9.53443C14.5102 9.3938 14.625 9.1688 14.625 8.9274V7.82818C14.625 7.67583 14.4516 7.58677 14.3274 7.67583L8.56174 11.8477C8.53777 11.8652 8.51827 11.8881 8.50482 11.9146C8.49138 11.9411 8.48438 11.9704 8.48438 12.0001C8.48438 12.0297 8.49138 12.059 8.50482 12.0855C8.51827 12.112 8.53777 12.1349 8.56174 12.1524Z" fill="black" fill-opacity="0.7"/>
<path d="M20.625 2.625H3.375C2.96016 2.625 2.625 2.96016 2.625 3.375V20.625C2.625 21.0398 2.96016 21.375 3.375 21.375H20.625C21.0398 21.375 21.375 21.0398 21.375 20.625V3.375C21.375 2.96016 21.0398 2.625 20.625 2.625ZM19.6875 19.6875H4.3125V4.3125H19.6875V19.6875Z" fill="black" fill-opacity="0.7"/>
</svg>
