<svg width="25" height="22" viewBox="0 0 25 22" fill="none" xmlns="http://www.w3.org/2000/svg">
<path d="M14.1827 17.3563V10.4195L10.691 11.3662C9.47526 11.618 8.38075 12.1577 7.54851 12.9159C6.91498 13.6645 6.58015 14.5514 6.58889 15.4579C6.59762 16.3643 6.94952 17.2469 7.59739 17.9875C7.94027 18.3116 8.36978 18.5688 8.85363 18.7396C9.33747 18.9104 9.86304 18.9904 10.3908 18.9736C11.1368 18.962 11.8688 18.8078 12.5268 18.5238C13.1847 18.2397 13.7498 17.8338 14.1757 17.3394M1.97576 20.5627C1.31898 20.0811 0.801963 19.4885 0.461563 18.8271C0.121164 18.1657 -0.034226 17.4519 0.00645398 16.7365C-0.0365844 15.9932 0.136087 15.252 0.510719 14.5721C0.885351 13.8922 1.45159 13.2922 2.16432 12.8201C3.6029 11.8734 5.88646 11.0845 9.01502 10.4533L14.1827 9.4221V6.55946C14.1827 4.78252 13.773 3.41318 12.9537 2.45145C12.5952 1.99783 12.0977 1.62665 11.5091 1.37389C10.9206 1.12114 10.2611 0.995399 9.59464 1.00886C8.62767 0.985432 7.67645 1.21037 6.87811 1.65127L6.6686 7.15678C5.72643 7.42316 4.73385 7.55475 3.73558 7.5456C2.93781 7.57802 2.15216 7.37803 1.52185 6.98209C1.24269 6.7847 1.02327 6.53834 0.880433 6.2619C0.737591 5.98546 0.675117 5.6863 0.697803 5.38735C0.697803 4.58717 1.2495 3.76256 2.35287 2.91353C3.62174 2.00009 5.09967 1.29563 6.70352 0.839807C8.54124 0.276548 10.492 -0.00809926 12.4578 0.00017535C15.3024 0.00017535 17.416 0.524242 18.7987 1.57237C20.1815 2.62051 20.8798 4.27723 20.8938 6.54255V18.2129C20.8363 18.6137 20.9712 19.017 21.2709 19.3399C21.6947 19.5669 22.2038 19.6666 22.7094 19.6217H25V20.2246C24.8254 20.3092 24.3924 20.4838 23.722 20.7374C22.9503 21.0277 22.1574 21.2799 21.3477 21.4925C20.5323 21.7229 19.6765 21.8466 18.8127 21.8588C17.6428 21.9286 16.4853 21.6274 15.5864 21.0192C14.7869 20.3146 14.3564 19.3877 14.3852 18.4327H14.1129C13.1882 19.4388 12.0846 20.3293 10.8377 21.0755C9.48138 21.7529 7.89492 22.068 6.30393 21.9759C4.71294 21.8839 3.19842 21.3894 1.97576 20.5627Z" fill="#0F1511"/>
</svg>
