<svg width="40" height="63" viewBox="0 0 40 63" fill="none" xmlns="http://www.w3.org/2000/svg">
<path d="M35.1983 39.9944C32.1306 45.3029 26.7743 48.8879 20.688 49.1341C20.8789 47.1048 20.9374 45.0679 20.8635 43.0329V42.8107C20.8635 42.5826 20.9617 42.5705 21.1934 42.5045L22.0709 42.2703C24.8557 41.5758 27.2103 39.9735 28.6276 37.8085C29.9263 35.7487 30.3826 33.0585 28.6276 31.2389C27.6427 30.2618 26.2541 29.6486 24.7525 29.5275C23.9452 29.4674 22.3868 29.5275 22.106 30.2901C21.8673 30.9687 22.443 31.359 23.0256 31.6352C24.0295 32.1096 24.6332 32.518 24.6402 33.4908C24.6157 34.0192 24.4581 34.5369 24.1782 35.0085C23.8983 35.48 23.5028 35.8943 23.0186 36.2231C22.6614 36.4836 22.2524 36.687 21.8112 36.8237C21.3759 36.9498 20.8705 37.0098 20.8705 36.5955V28.7768C20.8705 27.1855 21.2004 26.669 22.113 25.3119C23.7276 22.9098 25.7845 19.7632 26.9498 17.4692C27.8241 15.7904 28.3013 13.98 28.3538 12.1427C34.1032 15.4275 37.9642 21.973 37.9642 29.5275V30.5363C38.6816 30.5388 39.3849 30.7069 40 31.0227V29.5215C40 20.79 35.1281 13.2776 28.1292 9.93281C27.8455 8.50636 27.3031 7.12658 26.5216 5.84333C25.6792 4.30602 23.2081 1.47762 21.5865 0.414717C21.2905 0.177827 20.9096 0.0334904 20.5056 0.00514664C20.1017 -0.0231971 19.6983 0.0661169 19.3612 0.258584C19.1718 0.380058 19.0185 0.537925 18.9136 0.719435C18.8088 0.900945 18.7553 1.10101 18.7575 1.30347V8.14929C8.29063 8.82186 0 18.1178 0 29.5275C0 40.1565 7.22359 48.984 16.7006 50.6774C16.6023 50.9457 16.504 51.2059 16.4058 51.4581C15.6336 53.4158 13.682 57.6854 10.4949 57.6974C10.3408 57.7179 10.1833 57.7101 10.0329 57.6746C9.88255 57.6392 9.74268 57.5768 9.62257 57.4917C9.50247 57.4065 9.40486 57.3005 9.3362 57.1807C9.26754 57.0609 9.2294 56.93 9.22429 56.7966C9.22926 56.5299 9.33794 56.2721 9.53317 56.064C9.7922 55.8089 10.1179 55.6096 10.4838 55.4823C10.8497 55.355 11.2455 55.3033 11.6392 55.3314C11.8779 55.3807 12.1261 55.3869 12.3678 55.3497C12.6095 55.3125 12.8395 55.2326 13.0432 55.1152C13.1308 55.0504 13.2012 54.9702 13.2494 54.88C13.2976 54.7899 13.3225 54.6919 13.3225 54.5928C13.3225 54.4936 13.2976 54.3957 13.2494 54.3055C13.2012 54.2154 13.1308 54.1351 13.0432 54.0703C12.3285 53.692 11.4956 53.5097 10.6564 53.5479C7.70797 53.5479 4.16988 55.4695 4.13478 58.2619C4.09266 61.5467 7.77817 62.9879 11.0144 62.9759C15.0228 62.9759 17.7325 60.8741 18.954 57.7094C19.6656 55.6755 20.1499 53.5884 20.4001 51.4761L20.4703 50.9717C27.4903 50.8095 33.5837 46.8101 37.0446 40.8591C36.3556 40.7046 35.7216 40.4077 35.1983 39.9944ZM20.8705 6.13758C20.8625 6.09945 20.864 6.0603 20.8748 6.02268C20.8857 5.98507 20.9056 5.94983 20.9334 5.91925C20.9612 5.88866 20.9963 5.86343 21.0362 5.84518C21.0762 5.82692 21.1201 5.81607 21.1653 5.8133C21.5304 5.8133 21.8673 6.41381 22.464 7.42868C22.6325 7.72093 22.7846 8.00917 22.9203 8.29341C22.2428 8.18829 21.5581 8.1201 20.8705 8.08924V6.13758ZM20.8705 9.91479C21.8191 9.96249 22.7598 10.0912 23.6785 10.2991C24.3879 13.0606 24.0256 15.9446 22.6465 18.5141C22.3261 19.1862 21.9604 19.8418 21.5514 20.4778C21.5296 20.5583 21.4719 20.6285 21.3907 20.6733C21.3094 20.7181 21.211 20.7342 21.1162 20.718C21.0451 20.7019 20.9823 20.666 20.9378 20.616C20.8933 20.5659 20.8696 20.5046 20.8705 20.4417V9.91479ZM18.7645 30.5423V36.7336C18.7661 36.7709 18.7551 36.8077 18.7326 36.8397C18.7102 36.8717 18.6774 36.8974 18.6381 36.9137C18.5832 36.9366 18.5198 36.94 18.462 36.9231C18.4041 36.9062 18.3564 36.8705 18.3292 36.8237C18.1066 36.4421 17.9392 36.0388 17.8308 35.6226C17.4206 33.7828 17.6101 31.8819 18.3784 30.128C18.3936 30.0933 18.4219 30.0639 18.4587 30.0443C18.4955 30.0248 18.5388 30.0162 18.582 30.0199C18.6475 30.0509 18.6994 30.0993 18.7298 30.1578C18.7602 30.2164 18.7674 30.2818 18.7504 30.3441C18.7575 30.4102 18.7575 30.4763 18.7575 30.5423H18.7645ZM18.7645 23.3062C18.7645 24.7774 17.6694 26.0025 16.6164 27.0954C14.2717 29.4974 12.6079 31.7854 12.3061 34.848C11.9972 38.0007 13.2819 41.2014 17.1078 42.2943C17.5129 42.404 17.9255 42.4922 18.3433 42.5585C18.5398 42.5585 18.7785 42.5946 18.7575 42.8228C18.7575 42.8828 18.7575 42.9489 18.7153 43.0389C18.3643 44.8705 17.887 46.9603 17.3113 48.9239C8.67673 47.4707 2.09196 39.3338 2.09196 29.5275C2.09196 19.1566 9.44191 10.6654 18.7575 9.95082V23.3062H18.7645Z" fill="#0F1511"/>
</svg>
