<svg width="26" height="22" viewBox="0 0 26 22" fill="none" xmlns="http://www.w3.org/2000/svg">
<path d="M14.7441 17.3571V10.42L11.1179 11.3667C9.85524 11.6185 8.71856 12.1582 7.85424 12.9164C7.19736 13.6656 6.85088 14.5529 6.86125 15.4594C6.87162 16.3659 7.23835 17.2483 7.91227 17.9883C8.26835 18.3124 8.71442 18.5696 9.21691 18.7404C9.7194 18.9112 10.2652 18.9912 10.8133 18.9745C11.5882 18.9633 12.3486 18.8093 13.032 18.5252C13.7154 18.2411 14.3022 17.8349 14.7441 17.3402M2.06676 20.5636C1.38493 20.0849 0.84698 19.4954 0.491032 18.8371C0.135084 18.1787 -0.0301674 17.4676 0.00703044 16.7541C-0.0388111 16.0107 0.140016 15.2692 0.529167 14.5891C0.918317 13.909 1.507 13.3091 2.24807 12.8375C3.74209 11.8908 6.11365 11.1018 9.36277 10.4707L14.7369 9.43941V6.55974C14.7369 4.78273 14.3114 3.41333 13.4604 2.45156C13.0887 1.99754 12.5721 1.62603 11.9607 1.37322C11.3494 1.1204 10.6643 0.994895 9.97198 1.00891C8.96774 0.985479 7.97985 1.21043 7.15074 1.65134L6.93318 7.15709C5.95485 7.42394 4.9239 7.55554 3.88712 7.54593C3.06106 7.57699 2.24801 7.37706 1.59533 6.9824C1.3061 6.78674 1.07805 6.54244 0.92851 6.26805C0.778967 5.99367 0.711857 5.69641 0.73228 5.39886C0.73228 4.59864 1.30282 3.774 2.44388 2.92493C3.76888 2.00478 5.31401 1.29628 6.99119 0.839849C8.89968 0.27644 10.9257 -0.00822345 12.9673 0.000180798C15.9166 0.000180798 18.1141 0.52427 19.5598 1.57245C21.0054 2.62063 21.7307 4.27742 21.7355 6.54284V18.2137C21.6751 18.6145 21.8153 19.018 22.1271 19.3407C22.5673 19.5677 23.0961 19.6674 23.6212 19.6225H26V20.2255C25.8114 20.31 25.3763 20.4847 24.6728 20.7383C23.8713 21.0286 23.0478 21.2808 22.2069 21.4935C21.3626 21.7237 20.4762 21.8474 19.5815 21.8598C18.3665 21.9296 17.1644 21.6283 16.2309 21.0201C15.3953 20.3113 14.9478 19.3774 14.9835 18.4165H14.7079C13.7471 19.4225 12.601 20.313 11.3064 21.0595C9.89598 21.745 8.24262 22.0661 6.58299 21.977C4.92336 21.888 3.34254 21.3932 2.06676 20.5636Z" fill="#0F1511"/>
</svg>
