<svg width="14" height="33" viewBox="0 0 14 33" fill="none" xmlns="http://www.w3.org/2000/svg">
<path d="M3.96416 5.54459C3.58462 5.25024 3.28246 4.89619 3.076 4.50392C2.86954 4.11165 2.7631 3.68932 2.7631 3.26255C2.7631 2.83578 2.86954 2.41346 3.076 2.02119C3.28246 1.62892 3.58462 1.27487 3.96416 0.980517C4.32219 0.670817 4.7543 0.424059 5.23386 0.255431C5.71343 0.0868036 6.23032 -0.000123747 6.7527 1.32217e-07C7.27907 0.00111493 7.79978 0.0885054 8.28378 0.256962C8.76779 0.425419 9.20519 0.671494 9.5699 0.980517C9.95409 1.27265 10.2604 1.62597 10.4699 2.01854C10.6793 2.41111 10.7874 2.83455 10.7874 3.26255C10.7874 3.69056 10.6793 4.11399 10.4699 4.50656C10.2604 4.89914 9.95409 5.25246 9.5699 5.54459C9.19615 5.85356 8.74939 6.09766 8.25657 6.26217C7.76375 6.42668 7.23509 6.50818 6.70251 6.50176C6.19104 6.49743 5.6857 6.41061 5.21568 6.24632C4.74567 6.08203 4.32029 5.84353 3.96416 5.54459ZM3.44803 31.5575V15.0113L0.107544 13.6339V13.0969L10.4158 10.8207V31.5575L14 32.3162V32.9874H0V32.2929L3.44803 31.5575Z" fill="#0F1511"/>
</svg>
