<svg width="30" height="22" viewBox="0 0 30 22" fill="none" xmlns="http://www.w3.org/2000/svg">
<path d="M15.8109 20.8806C14.3443 21.6086 12.6539 21.9909 10.9314 21.9841C9.91155 22.0255 8.89209 21.896 7.93743 21.6038C6.98276 21.3116 6.11366 20.8631 5.38498 20.2864C4.0089 19.1547 3.32086 17.4778 3.32086 15.2559V3.19716L0 2.03147V1.4656L10.0749 0.0848792V14.5089C10.0749 17.4477 11.6639 18.9151 14.842 18.9114C16.587 18.8911 18.2703 18.3876 19.6092 17.4854V3.11228L15.9654 2.03147V1.42599L26.4124 0V19.2396L30 20.0148V20.6599L20.3113 21.8539L19.7215 18.3116C18.5777 19.3147 17.2606 20.1799 15.8109 20.8806Z" fill="#0F1511"/>
</svg>
