<svg width="12" height="33" viewBox="0 0 12 33" fill="none" xmlns="http://www.w3.org/2000/svg">
<path d="M3.38462 5.54459C3.05801 5.25067 2.79791 4.89677 2.62016 4.50444C2.44242 4.11211 2.35075 3.68957 2.35075 3.26255C2.35075 2.83554 2.44242 2.413 2.62016 2.02067C2.79791 1.62834 3.05801 1.27443 3.38462 0.980517C3.6922 0.671091 4.06318 0.424516 4.47482 0.255909C4.88645 0.0873026 5.33007 0.000219638 5.77846 0C6.23033 0.0011148 6.67734 0.0885053 7.09284 0.256962C7.50834 0.425419 7.88383 0.671493 8.19692 0.980517C8.52674 1.27265 8.78971 1.62597 8.9695 2.01854C9.14929 2.41111 9.24207 2.83455 9.24207 3.26255C9.24207 3.69056 9.14929 4.11399 8.9695 4.50656C8.78971 4.89914 8.52674 5.25246 8.19692 5.54459C7.87628 5.85383 7.49279 6.09812 7.06967 6.26264C6.64656 6.42717 6.19262 6.50852 5.73538 6.50176C5.28909 6.50254 4.84719 6.4182 4.43595 6.25377C4.02471 6.08934 3.65253 5.84817 3.34153 5.54459M2.96 31.5575V15.0113L0.0923039 13.6339V13.0969L8.92308 10.8265V31.5575L12 32.3162V32.9874H0V32.2929L2.96 31.5575Z" fill="#0F1511"/>
</svg>
