<svg width="29" height="35" viewBox="0 0 29 35" fill="none" xmlns="http://www.w3.org/2000/svg">
<path d="M18.7163 30.879V15.2114C17.6996 13.8067 15.9227 13.1044 13.3857 13.1044C12.4625 13.1091 11.5552 13.3061 10.7444 13.678C9.93367 14.0498 9.24476 14.5849 8.73911 15.2354C7.50859 16.6561 6.89333 18.8572 6.89333 21.8386C6.87306 23.5659 7.19336 25.2841 7.84117 26.9231C8.3733 28.3418 9.31906 29.6255 10.592 30.6569C11.7474 31.5734 13.281 32.075 14.868 32.0556C16.2621 31.9986 17.6034 31.5885 18.7163 30.879ZM25.5721 0V32.3437L29 32.7099V33.3822L19.543 34.8229L18.9444 31.8215C16.5118 33.9305 13.8988 34.985 11.1051 34.985C9.02594 35.0192 6.98414 34.5165 5.25421 33.5443C3.55593 32.5723 2.20937 31.2241 1.36309 29.6484C0.438342 27.9551 -0.026652 26.1095 0.00191772 24.2458C-0.0433027 21.937 0.712083 19.6672 2.17552 17.7146C3.59481 15.8314 5.57204 14.2922 7.91243 13.2484C10.2253 12.1932 12.8149 11.6422 15.4452 11.6457C16.5488 11.6745 17.6445 11.8136 18.7092 12.0599V3.80585L14.5188 2.79736V2.25109L25.5721 0Z" fill="#0F1511"/>
</svg>
