<svg width="19" height="22" viewBox="0 0 19 22" fill="none" xmlns="http://www.w3.org/2000/svg">
<path d="M3.02865 20.6674V4.51119L0 2.83428V2.44107L8.48151 0.0124296H8.72848L8.97545 5.7949H9.17043L9.82035 4.63841C10.5396 3.29264 11.5036 2.06177 12.6735 0.99545C13.498 0.339463 14.5703 -0.015705 15.6762 0.000864352C16.5381 -0.0172767 17.3768 0.250695 18.0289 0.752585C18.35 1.00539 18.6036 1.31882 18.7711 1.66996C18.9386 2.02111 19.0159 2.40112 18.9973 2.78223C18.9973 4.52083 17.8729 5.60986 15.6242 6.04933L12.5565 3.82886C11.8748 4.10073 11.2788 4.51778 10.8212 5.04318C10.1589 5.6987 9.65068 6.46546 9.32641 7.29834V20.6674L13.4404 21.3266V21.9916H0V21.3266L3.02865 20.6674Z" fill="#0F1511"/>
</svg>
