<svg width="18" height="22" viewBox="0 0 18 22" fill="none" xmlns="http://www.w3.org/2000/svg">
<path d="M0.299977 20.5596L0 14.054H0.945579L4.03013 19.9413C4.47277 20.3051 4.98716 20.5992 5.54958 20.8102C6.19948 21.0583 6.90507 21.1818 7.61682 21.1722C8.23332 21.2016 8.84999 21.1173 9.42497 20.9251C9.99996 20.7329 10.5198 20.4372 10.9492 20.0583C11.7925 19.208 12.2199 18.1129 12.1426 17.0005C12.1715 16.251 11.8794 15.5182 11.3209 14.9396C10.5861 14.2845 9.67163 13.7964 8.66022 13.5193L5.39959 12.4555C2.01289 11.3787 0.31954 9.43667 0.31954 6.6295C0.305372 5.39849 0.763452 4.19736 1.62379 3.20964C2.55435 2.16026 3.80066 1.34603 5.23004 0.853622C6.88219 0.266928 8.65801 -0.0231468 10.447 0.00144218C12.6946 0.0399706 14.9041 0.504147 16.9161 1.36047L16.8248 7.16977H15.9771L13.186 1.98429C12.2554 1.30717 11.076 0.930654 9.85361 0.920459C9.32173 0.899123 8.79099 0.979571 8.30019 1.15592C7.80939 1.33227 7.37093 1.60007 7.01686 1.93973C6.25285 2.78362 5.88122 3.83902 5.97346 4.90286C5.95186 5.24311 6.01838 5.58324 6.1683 5.89902C6.31821 6.2148 6.54783 6.49845 6.84079 6.72975C7.64019 7.35441 8.58131 7.83215 9.6058 8.13334L12.2143 9.02451C13.8698 9.51645 15.3821 10.3067 16.6487 11.3415C17.5875 12.2797 18.0685 13.49 17.9921 14.7224C18.0135 16.0843 17.5068 17.414 16.5509 18.5043C15.5364 19.6427 14.1861 20.5307 12.6382 21.0775C10.9563 21.6962 9.14145 22.0074 7.31032 21.991C4.86623 21.942 2.46004 21.4643 0.241286 20.5874" fill="#0F1511"/>
</svg>
