<svg width="135" height="109" viewBox="0 0 135 109" fill="none" xmlns="http://www.w3.org/2000/svg">
<path d="M4.50819 0.710731L0.709689 4.50369M4.50819 26.6293L0.709689 30.4222M4.50819 52.5478L0.709689 56.3408M4.50819 78.4664L0.709689 82.2593M4.50819 104.385L0.709689 108.178M30.4646 0.710731L26.6661 4.50369M30.4646 26.6293L26.6661 30.4222M30.4646 52.5478L26.6661 56.3408M30.4646 78.4664L26.6661 82.2593M30.4646 104.385L26.6661 108.178M56.4211 0.710731L52.6226 4.50369M56.4211 26.6293L52.6226 30.4222M56.4211 52.5478L52.6226 56.3408M56.4211 78.4664L52.6226 82.2593M56.4211 104.385L52.6226 108.178M82.3775 0.710731L78.579 4.50369M82.3775 26.6293L78.579 30.4222M82.3775 52.5478L78.579 56.3408M82.3775 78.4664L78.579 82.2593M82.3775 104.385L78.579 108.178M108.334 0.710731L104.535 4.50369M108.334 26.6293L104.535 30.4222M108.334 52.5478L104.535 56.3408M108.334 78.4664L104.535 82.2593M108.334 104.385L104.535 108.178M134.29 0.710731L130.492 4.50369M134.29 26.6293L130.492 30.4222M134.29 52.5478L130.492 56.3408M134.29 78.4664L130.492 82.2593M134.29 104.385L130.492 108.178" stroke="#34251F" stroke-width="2"/>
</svg>
