<svg width="294" height="46" viewBox="0 0 294 46" fill="none" xmlns="http://www.w3.org/2000/svg">
<path d="M134.167 38.4726C132.331 38.8334 130.337 38.597 128.741 37.5734C126.877 36.4381 125.634 34.4035 125.398 32.2331C125.368 31.791 125.367 31.3474 125.393 30.9052C125.665 28.4096 127.53 26.125 129.991 25.5509C133.015 28.8881 136.039 32.2215 139.08 35.5413C137.839 37.0467 136.071 38.09 134.167 38.4726ZM147.821 34.2422C147.925 32.8729 148.022 31.4872 148.462 30.1733C148.979 28.5191 149.892 26.8075 151.519 26.0351C151.852 25.9348 152.196 25.8623 152.543 25.831C152.547 25.5163 152.527 25.1972 152.606 24.8882C152.512 24.456 152.644 24.0156 152.598 23.5776C152.535 22.9205 152.543 22.2601 152.562 21.6008C152.61 20.7788 152.495 19.9387 152.606 19.1236C152.558 18.9171 152.543 18.7087 152.539 18.5C150.518 18.4805 148.501 19.0453 146.761 20.07C144.139 21.6148 142.156 24.2484 141.463 27.2318C137.553 22.998 133.717 18.6958 129.817 14.4552C128.988 13.5179 128.62 12.2201 128.78 10.9843C129.027 9.64842 129.866 8.41613 131.094 7.80663C131.913 7.3547 132.878 7.28543 133.789 7.40073C135.194 7.63245 136.409 8.63523 136.986 9.93325C139.156 8.80233 141.373 7.75705 143.535 6.6009C143.16 5.89645 142.77 5.19554 142.278 4.56612C140.12 1.70295 136.579 -0.0837328 132.99 0.00302311C128.839 -0.067798 124.8 2.38195 122.846 6.04163C121.608 8.29529 121.148 10.9697 121.575 13.5066C121.95 15.8718 123.081 18.108 124.763 19.8037C122.816 20.961 121.149 22.5978 119.982 24.5459C118.64 26.7648 117.973 29.3779 118.05 31.969C118.132 34.5246 118.885 37.0639 120.25 39.2253C122.288 42.5163 125.708 44.9045 129.492 45.6804C131.419 46.0839 133.42 46.0607 135.359 45.7437C138.664 45.1316 141.731 43.4407 144.07 41.0257C145.045 42.1531 146.073 43.2331 147.069 44.3432C150.378 44.3375 153.69 44.357 157.001 44.334C153.927 40.9832 150.876 37.6115 147.821 34.2422ZM16.3465 23.7989C15.1062 25.1279 13.3561 25.8886 11.5667 26.0904C10.2805 26.1447 8.99305 26.1041 7.70577 26.1159V8.28378C9.21597 8.32185 10.7548 8.15232 12.2351 8.52922C14.0233 8.92339 15.6839 9.9067 16.8391 11.3373C19.7056 14.8609 19.4864 20.5172 16.3465 23.7989ZM25.9991 13.3165C25.178 9.72234 23.1384 6.38179 20.1766 4.17173C17.3434 2.02829 13.7753 0.98633 10.2497 0.970174C6.83281 0.971281 3.41638 0.970174 0.000826876 0.970174C-0.000275625 15.4294 -0.000275625 29.8851 0.000826876 44.3435H7.70577C7.70577 40.7241 7.70444 37.1033 7.70577 33.485C9.54893 33.4494 11.4082 33.5913 13.2388 33.3146C16.2398 32.8915 19.1041 31.522 21.2941 29.4184C24.2305 26.6439 26.0117 22.7328 26.3782 18.7204C26.4701 16.9118 26.4412 15.0822 25.9991 13.3165ZM56.7821 0.971059C59.3727 0.969953 61.9638 0.973273 64.5545 0.969953C64.5719 1.21074 64.5869 1.45176 64.5935 1.69366C64.588 2.17325 64.59 2.65284 64.588 3.13464C64.5889 3.61424 64.5924 4.09493 64.588 4.57541C64.588 5.27411 64.5924 5.97258 64.588 6.67105C64.5889 6.89016 64.5889 7.10926 64.5902 7.32836C64.5593 8.37607 64.605 9.42489 64.588 10.4739C64.5995 11.916 64.5593 13.3566 64.588 14.7976C64.5946 17.0269 64.5889 19.2549 64.588 21.482C64.5889 21.8739 64.588 22.2659 64.5924 22.6611C64.5648 23.1418 64.5648 23.6237 64.5924 24.1043C64.588 24.4536 64.5889 24.8017 64.5889 25.1512C64.5375 26.6725 64.6616 28.1965 64.5029 29.7145C64.2791 32.3404 63.5658 34.9453 62.2622 37.2392C60.9288 39.6139 58.948 41.616 56.5821 42.9543C53.942 44.4574 50.8835 45.1387 47.862 45.1387C44.5004 45.1754 41.0816 44.3685 38.2276 42.5451C35.482 40.8126 33.3627 38.1464 32.1914 35.1184C31.2199 32.6653 30.8455 30.006 30.8649 27.378C30.8662 18.5761 30.8649 9.77413 30.8649 0.971059C33.4754 0.969953 36.0859 0.969953 38.6962 0.969953C38.6975 9.95273 38.6962 18.9333 38.6975 27.9141C38.7756 30.4326 39.3154 33.0929 40.9953 35.0493C42.3702 36.6859 44.4682 37.5586 46.5643 37.7232C48.7488 37.9388 51.081 37.6427 52.9668 36.4474C54.4816 35.4906 55.521 33.9195 56.0699 32.2331C56.4912 31.0147 56.6465 29.726 56.7508 28.4477C56.8187 25.295 56.7611 22.1424 56.7796 18.9875C56.7796 12.9845 56.7799 6.97647 56.7821 0.971059ZM94.051 0.979027C96.6443 0.961985 99.2374 0.9746 101.828 0.969953C101.83 12.9385 101.828 24.9031 101.83 36.8681C106.266 36.8738 110.703 36.8555 115.14 36.876C115.136 39.3636 115.138 41.8499 115.14 44.3375C108.109 44.349 101.081 44.349 94.0521 44.3375C94.0521 29.8851 94.0521 15.4314 94.051 0.979027ZM179.903 32.7633C179.707 33.7902 179.153 34.7587 178.324 35.3983C177.338 36.188 176.107 36.5824 174.887 36.8012C172.547 37.1897 170.167 36.9891 167.806 37.0398C167.809 33.2774 167.804 29.514 167.809 25.7527C169.57 25.7642 171.33 25.7217 173.089 25.7815C174.796 25.8886 176.578 26.148 178.023 27.1244C179.047 27.7873 179.742 28.9111 179.926 30.1157C180.06 30.9938 180.052 31.8878 179.903 32.7633ZM167.806 8.04166C169.538 8.06601 171.284 7.94694 173.001 8.24682C174.233 8.47522 175.489 8.96278 176.322 9.94476C177.108 10.8876 177.368 12.1579 177.338 13.3612C177.368 14.7272 176.917 16.1635 175.883 17.0913C174.792 18.0584 173.314 18.4331 171.896 18.5369C170.531 18.5668 169.17 18.5413 167.806 18.5495V8.04166ZM186.75 25.9926C185.691 23.7817 183.801 22.0237 181.616 20.9586C181.625 20.9154 181.633 20.872 181.639 20.8284C183.233 19.4348 184.387 17.5317 184.833 15.4522C185.168 13.9411 185.091 12.3733 184.852 10.853C184.545 9.37089 183.991 7.93101 183.153 6.66796C181.943 4.8359 180.213 3.37101 178.249 2.40983C176.67 1.67064 174.936 1.3619 173.219 1.1532C172.174 1.0795 171.131 0.994076 170.085 0.975486C166.747 0.962871 163.405 0.9746 160.064 0.969953V44.3432C164.973 44.3189 169.882 44.3941 174.789 44.3052C178.272 44.017 181.744 42.6708 184.261 40.19C186.217 38.3228 187.537 35.7845 187.864 33.0895C188.105 30.6861 187.815 28.1794 186.75 25.9926ZM192.049 0.969953C200.902 0.969953 209.753 0.969953 218.603 0.971059C218.599 3.40908 218.614 5.84665 218.596 8.28489C212.335 8.28954 206.073 8.26984 199.811 8.29529C199.814 11.7103 199.814 15.1253 199.811 18.5402C205.754 18.5635 211.697 18.5438 217.64 18.5495C217.643 20.9508 217.64 23.3527 217.643 25.7505C211.699 25.7585 205.757 25.7447 199.814 25.7585C199.811 29.514 199.816 33.2717 199.811 37.0283C206.073 37.0549 212.337 37.0318 218.603 37.0398C218.605 39.4754 218.603 41.9077 218.603 44.3432H192.049V0.969953ZM236.186 25.7239C237.918 21.3644 239.662 17.0096 241.369 12.6411C243.098 16.9981 244.798 21.3678 246.541 25.7215C243.089 25.7326 239.637 25.7336 236.186 25.7239ZM244.466 1.06888C244.422 0.840483 244.149 0.893599 243.991 0.88209C242.24 0.886738 240.488 0.886738 238.741 0.88209C238.574 0.901566 238.327 0.83495 238.245 1.02041C232.377 15.46 226.5 29.8986 220.635 44.3395C223.423 44.3488 226.211 44.343 228.998 44.343C230.457 40.5842 231.907 36.8205 233.362 33.0603C238.695 33.0639 244.026 33.0603 249.357 33.0639C250.811 36.824 252.251 40.5908 253.716 44.3452C256.687 44.3373 259.658 44.351 262.631 44.3373C256.578 29.9137 250.52 15.4914 244.466 1.06888ZM283.402 17.1605C283.004 18.5725 282.064 19.8221 280.801 20.5655C278.97 21.6721 276.768 21.943 274.666 21.9408C273.851 21.9372 273.037 21.9372 272.226 21.9372V8.28378C274.44 8.29396 276.69 8.15808 278.854 8.74368C279.785 9.019 280.707 9.37753 281.494 9.96092C282.502 10.6698 283.208 11.766 283.507 12.9591C283.842 14.3366 283.781 15.7992 283.402 17.1605ZM289.9 37.26C288.077 33.8066 286.334 30.3058 284.744 26.7382C285.99 26.0351 287.146 25.1625 288.135 24.1194C289.395 22.8364 290.291 21.2376 290.882 19.5432C292.105 15.7244 291.973 11.3337 289.977 7.79866C289.068 6.20076 287.76 4.84055 286.228 3.83201C283.92 2.28391 281.187 1.51616 278.462 1.14966C277.5 1.07353 276.544 0.959551 275.582 0.969953C271.87 0.9746 268.16 0.963977 264.447 0.975486C264.451 15.4305 264.451 29.8851 264.447 44.3397C267.044 44.3455 269.632 44.349 272.226 44.3397V29.7736C272.472 29.77 272.723 29.7678 272.974 29.7561C273.612 29.6629 274.261 29.7065 274.901 29.6202C275.562 29.5649 276.211 29.4334 276.873 29.3989C277.15 30.125 277.505 30.8166 277.824 31.5222C279.837 35.8722 282.011 40.1458 284.339 44.3342C287.561 44.355 290.779 44.3457 294 44.3377C292.541 42.0323 291.186 39.6624 289.9 37.26ZM69.8258 0.969953H77.5869C77.5869 12.9361 77.5847 24.9031 77.5869 36.8681H90.8813C90.8813 39.3601 90.8824 41.8534 90.8813 44.3432H69.8258C69.8247 29.8873 69.8258 15.4294 69.8258 0.969953Z" fill="#0F1511"/>
</svg>
