<svg width="301" height="44" viewBox="0 0 301 44" fill="none" xmlns="http://www.w3.org/2000/svg">
<path fill-rule="evenodd" clip-rule="evenodd" d="M300.993 36.7594C300.981 36.7139 300.969 36.6624 300.901 36.6159C300.476 36.268 298.831 37.0299 298.047 37.1657C295.417 37.6227 293.526 35.5503 292.818 33.8662C292.314 32.6684 292.211 31.1116 291.939 29.2633C291.84 28.5238 291.788 27.412 291.711 26.4055C291.62 25.1407 291.687 23.093 290.318 22.7949C288.235 22.4132 288.557 26.0832 288.332 28.3428C288.027 31.5939 286.979 34.3605 284.302 35.4682C282.908 36.0454 281.357 36.1133 280.26 35.2053C278.342 33.6179 278.433 30.52 278.433 26.9802C278.417 25.3465 278.403 23.7125 278.388 22.079C278.388 20.6983 278.095 17.9574 278.639 17.0816C279.347 15.9405 281.686 16.6056 282.932 16.0297C283.292 15.8628 283.778 15.5192 283.639 14.858C283.252 13.0075 280.06 14.3529 278.844 13.3757C277.363 12.1845 279.28 7.42075 277.269 6.56135C276.623 6.28523 276.004 6.69599 275.739 7.0635C275.107 7.94025 275.282 9.813 275.282 11.3432C275.282 11.955 275.294 12.5378 275.122 12.9691C274.99 13.3019 274.689 13.5961 274.369 13.7342C273.849 13.959 273.278 13.9184 272.542 13.9255L269.392 14.0213C268.721 14.0215 267.951 14.131 267.359 13.9734C264.725 13.2716 267.792 6.50148 264.528 6.48951C263.814 6.58896 263.564 6.90687 263.341 7.56565C262.815 9.11634 263.571 11.7263 262.975 13.2323C262.366 14.7717 259.739 13.6819 258.774 15.193C258.645 15.3953 258.473 15.7301 258.545 16.1255C258.943 18.3046 261.981 16.8749 262.815 18.277C263.341 19.1616 263.16 21.7684 263.128 23.1649C263.025 27.5503 262.984 30.5625 261.423 33.2446C261.085 33.8239 260.728 34.4321 260.235 34.8466C259.828 35.1892 259.383 35.5349 258.865 35.7551C258.244 36.019 257.284 36.1011 256.605 35.8509C254.084 34.9223 254.034 30.2617 253.877 26.8705C253.783 25.1253 254.116 23.0671 252.518 22.7949C250.704 22.487 250.546 25.5884 250.234 27.0748C249.539 30.3851 247.686 35.2542 244.513 35.9464C242.56 36.3728 241.44 34.9125 241.091 33.4442C240.917 32.7163 240.895 31.9756 240.863 30.9222C240.932 29.4072 241.171 27.4621 241.237 26.2621C241.399 23.7533 240.925 22.4579 239.479 22.7473C238.233 22.9965 238.152 24.447 237.837 25.9547C237.038 30.1346 237.34 36.5206 239.741 38.529C240.22 38.9293 240.752 39.2985 241.385 39.5328C244.104 40.5388 246.912 38.8926 248.43 37.6921C249.182 37.0971 250.221 36.1377 251.65 36.5204C253.682 37.0646 254.329 39.159 256.536 39.6286C257.676 39.871 258.633 39.3366 259.299 38.9114C260.516 38.1344 261.448 37.199 263.135 36.9028C264.046 36.743 264.841 37.2007 265.373 37.5008C266.658 38.2265 267.682 39.2281 269.346 39.5328C270.278 39.7039 271.088 39.2789 271.606 38.9588C272.841 38.1969 273.8 37.1008 275.442 36.8073C276.291 36.6553 277.006 37.0839 277.474 37.381C278.618 38.107 279.438 39.1438 280.922 39.5089C283.589 40.1647 286.222 37.6633 287.955 36.8791C288.713 36.5358 289.759 36.5268 290.443 36.9507C291.129 37.3754 291.674 37.9836 292.316 38.4572C293.492 39.3237 295.645 39.9609 297.636 39.4373C298.244 39.2772 298.803 39.038 299.28 38.744C299.741 38.4591 301.112 37.4465 300.993 36.7594ZM275.259 20.3338C275.252 21.234 275.266 22.1283 275.258 23.029C275.258 23.7103 275.258 24.2227 275.253 24.9496C275.227 26.5179 275.179 28.7367 274.803 30.3279C274.438 31.8747 273.763 32.9963 272.953 34.0575C272.317 34.8923 271.173 36.0099 269.62 35.6116C265.498 34.5541 266.034 28.8889 266.034 23.5617C266.034 22.0777 265.944 18.6697 266.514 17.8706C267.282 16.7945 270.769 16.9208 272.158 16.8138C272.531 16.7899 272.992 16.8187 273.365 16.795C275.528 16.7828 275.26 18.2311 275.259 20.3338ZM289.831 12.8029C288.924 12.9381 288.469 13.3708 288.201 14.3094C287.84 15.6719 289.043 17.1691 290.383 16.9203C292.772 16.4768 292.677 12.67 289.831 12.8029ZM233.566 26.113C233.887 24.7962 234.17 22.3546 234.082 20.4366C233.96 18.5656 233.753 17.0843 233.498 16.0228C233.011 14.0037 232.409 12.1249 231.511 10.5236C227.741 3.80623 221.22 -0.135479 210.709 0.00355946C210.081 0.0172434 209.826 0.0275064 209.18 0.0988584C208.078 0.222747 207.292 0.353966 206.349 0.48152C203.175 1.06871 199.597 1.71699 196.69 2.89625C195.7 3.29797 194.711 3.61417 193.836 4.11559C193.551 4.27906 193.012 4.574 193.105 5.09619C193.258 5.95266 194.559 5.57366 195.183 5.40701C196.956 4.9332 199.453 3.94869 199.544 6.41131L200.001 19.4421L200.092 23.3396L200.183 28.4559V29.9861C200.215 31.9849 200.076 34.8207 201.462 35.4377C202.245 35.7861 202.712 35.0433 202.923 34.5289C203.412 33.345 203.514 32.2918 203.636 30.3045C203.651 29.85 203.662 29.3644 203.677 28.9102C203.708 27.436 203.738 25.9613 203.768 24.4871L203.905 15.3293L203.951 10.7389V9.54323C203.959 8.61076 203.945 7.66608 203.952 6.73362C203.952 6.1154 203.924 5.4615 204.042 4.9288C204.156 4.41834 204.399 4.01858 204.773 3.78106C205.673 3.20927 209.399 3.00499 211.248 3.20023C212.584 3.36321 213.555 3.55821 214.66 3.8529C218.649 4.91634 222.058 6.87559 224.273 9.8064C225.487 11.413 226.537 13.2403 227.196 15.4251C227.568 16.6608 227.844 17.7169 227.977 19.0421C228.354 22.4941 227.791 26.4143 226.99 28.5754C224.442 35.4509 219.565 38.6766 212.08 40.3871C210.764 40.6933 209.352 40.7744 208.404 40.8414L206.782 40.8892H205.047C204.347 40.8575 203.719 40.8626 202.946 40.7935C201.287 40.6659 198.591 40.2999 196.985 40.0492C196.338 39.9612 195.231 39.6899 194.932 39.9089C194.888 39.9475 194.842 40.0017 194.863 40.1002C194.924 40.4831 195.963 40.8406 196.532 41.0728C198.103 41.714 199.801 42.0468 201.622 42.4671C210.971 44.4762 220.43 41.7242 225.711 37.8287C229.473 35.0533 232.258 31.4784 233.566 26.113ZM179.075 31.9939C180.274 27.898 177.624 24.6982 175.033 23.6257C173.089 22.8208 169.783 22.7671 167.841 23.602C167.458 23.7665 166.136 24.3801 166.448 24.9887C166.599 25.3025 167.195 25.2172 167.544 25.1324C168.507 24.8976 169.824 24.5924 171.037 24.8214C173.875 25.3565 176.391 27.4467 175.285 31.2291C175.119 31.7948 174.866 32.3524 174.577 32.8069C173.416 34.6332 169.793 36.7924 166.585 35.7959C164.653 35.1957 163.151 33.8814 162.566 31.8747C162.133 30.3866 162.152 27.9196 162.406 26.2081C162.599 25.1671 162.308 24.3967 161.539 24.5824C160.522 24.8277 160.024 27.8135 159.621 28.886C158.601 31.5961 157.122 34.4744 154.049 35.0071C152.641 35.251 151.924 33.7778 151.561 32.8548C150.739 30.7656 150.474 28.1241 149.94 25.7301C149.662 24.4868 149.566 23.1497 148.364 22.8846C147.416 22.6757 146.689 23.3396 146.309 23.841C145.221 25.279 144.596 27.2341 143.546 28.7186C143.147 29.2831 142.447 30.1786 141.354 29.9621C139.451 29.5848 139.093 26.8063 138.455 25.0845C138.188 24.3664 137.739 22.8413 136.673 23.052C134.802 23.4219 134.179 27.4208 133.363 29.1013C133.005 29.8368 132.275 31.016 131.056 30.488C128.864 29.5374 130.122 23.8012 127.7 23.1954C126.237 22.8299 125.339 24.72 124.846 25.7538C123.925 27.7869 122.964 30.1918 121.74 32.1139C121.214 32.9411 120.563 33.8691 119.457 34.0744C118.154 34.3163 117.619 32.9939 117.288 32.1616C116.591 30.4086 116.315 28.3042 115.941 26.1844C115.711 24.8856 115.807 23.6316 114.913 23.0517C113.613 22.2097 112.644 23.7684 111.945 24.3432C110.442 25.5786 108.785 26.5475 107.081 27.5948C106.589 27.8976 105.614 28.6355 104.775 28.4796C103.803 28.2988 103.274 27.532 102.629 26.9969C101.404 25.9825 100.276 24.871 99.1584 23.7455C98.5301 23.1126 97.7573 21.8722 96.7379 21.9282C96.4401 21.9739 96.275 22.0391 96.0758 22.1677C95.3088 22.6608 94.9804 23.8095 94.5003 24.6061C93.744 25.8606 91.342 28.5756 89.7965 28.862C88.7805 29.0507 87.9908 27.9513 87.536 27.4753C86.0258 25.8938 84.7366 24.3695 82.7182 23.2912C81.9845 22.899 80.508 22.2043 79.5214 22.8367C78.7306 23.3442 78.7271 25.7436 78.3797 26.7818C77.4173 29.6616 75.896 32.804 73.8361 34.5287C73.0878 35.1549 71.9945 36.1851 70.4795 35.7959C67.8749 35.1273 67.3041 31.8227 66.6663 28.862C66.368 27.4047 66.2569 24.9211 65.1592 24.654C64.2602 24.4353 64.0823 25.3929 63.9719 26.0649C63.8438 26.8468 63.8855 27.4858 63.9035 28.6468L63.8577 30.1056C63.7882 31.31 63.6676 31.9536 63.3554 32.7116C62.4284 34.9626 59.1575 37.3754 55.6924 36.8217C54.904 36.6956 54.3029 36.579 53.6743 36.322C51.7589 35.5386 50.6402 34.0099 50.2722 31.5878C50.1548 30.8169 50.3518 30.022 50.5232 29.5076C51.3852 26.924 53.8434 25.8995 56.4827 25.8257C57.4744 25.6605 60.4391 26.1282 60.7753 25.4191C61.0278 24.7708 59.8754 24.2449 59.5195 24.0563C58.0204 23.2604 55.3869 22.7338 53.2174 23.2673C50.2562 23.9954 47.8654 25.7748 46.7558 28.4317C45.3346 31.8346 47.3464 35.9056 49.2215 37.4697C51.5767 39.4339 55.4302 40.4963 59.3594 39.2631C61.326 38.6456 62.8079 37.5115 64.9081 37.135C65.4456 37.0382 66.0262 37.186 66.3926 37.3023C68.3184 37.9135 70.1206 40.3475 72.7627 39.502C73.6179 39.2284 74.3838 38.7753 75.0461 38.2827C76.783 36.9915 78.2285 35.1266 79.1335 32.9743C79.6995 31.6279 80.1643 29.9338 80.8912 28.7186C81.3229 27.9982 82.2668 27.5396 83.1978 28.097C83.5853 28.3305 83.9454 28.6114 84.2707 28.9339C84.5687 29.2293 84.9122 29.5257 85.0928 29.9382C85.3299 30.4789 85.1908 31.0908 84.9103 31.4683C84.6069 31.8764 84.0787 32.1406 83.6771 32.4487C82.9282 33.0227 82.1795 33.7296 81.6223 34.5047C80.3271 36.3056 80.5649 38.0276 82.33 39.1196C85.0745 40.8167 91.6392 41.1189 92.468 37.4937C92.7755 36.1483 92.1558 34.7974 91.7832 33.907C91.5959 33.4598 91.1827 32.8367 91.3719 32.1139C91.5725 31.3486 92.2528 30.9593 92.7878 30.5359L96.1897 27.5709C96.693 27.1606 97.3326 27.0787 97.9479 27.3319C98.4613 27.5428 98.8478 27.9139 99.2494 28.2404C99.7114 28.6157 100.862 29.4834 100.665 30.464C100.534 31.1157 99.9909 31.4466 99.5463 31.7792C98.3411 32.6811 95.0659 35.4491 96.8748 37.6132C97.2059 38.0093 97.6626 38.344 98.1077 38.6175C98.9277 39.1204 99.9372 39.4488 100.985 39.6934C104.177 40.4384 107.726 39.5639 108.36 36.9436C108.976 34.3977 105.874 32.4309 108.246 30.7988L109.479 30.1295C110.005 29.8859 110.684 29.4047 111.557 29.5792C113.083 29.8847 113.212 31.6582 113.726 33.0222C114.529 35.1552 115.895 38.809 117.973 39.4781C119.057 39.8268 119.965 39.1409 120.53 38.6888C122.171 37.3774 123.28 35.3675 124.503 33.6199C124.918 33.0268 125.79 31.5952 126.878 31.8031C128.678 32.1474 128.831 35.9388 129.367 37.7327C129.589 38.4782 129.847 39.3474 130.577 39.5494C131.587 39.83 132.284 38.2522 132.563 37.5892C133.365 35.683 134.408 31.4121 136.285 30.8706C137.141 30.6236 137.751 31.1888 138.066 31.6836C139.041 33.2123 138.763 36.2162 139.39 38.0674C139.626 38.7607 140.133 39.8507 141.194 39.6215C142.396 39.3623 142.692 37.5868 143.044 36.4175C143.65 34.406 144.3 31.9776 146.241 31.3726C147.662 30.9295 148.186 32.3045 148.524 33.2135C149.353 35.4408 149.709 38.5786 151.789 39.4781C152.82 39.9238 154.162 39.5235 154.917 39.1196C156.744 38.1417 157.743 36.3779 160.1 35.9633C160.765 35.8465 161.373 36.1588 161.767 36.3696C162.913 36.9818 163.814 37.871 164.918 38.5456C168.031 40.4482 172.266 39.5763 174.805 37.8043C176.703 36.4798 178.335 34.5189 179.075 31.9939ZM87.5816 37.9956C86.0833 38.4352 83.6632 37.5105 84.0655 35.8677C84.3705 34.6198 85.9513 33.8728 86.6226 33.8591C88.7483 33.8726 89.7946 37.3466 87.5816 37.9956ZM104.592 36.5849C104.325 37.1983 103.651 37.5225 102.926 37.6611C101.442 37.9445 99.2633 36.831 99.889 35.2219C100.302 34.1594 101.821 33.527 102.355 33.5004C102.753 33.4173 103.007 33.495 103.245 33.5964C104.044 33.9356 105.136 35.3414 104.592 36.5849ZM115.119 13.2025C114.212 13.3378 113.757 13.7703 113.489 14.7089C113.128 16.0714 114.331 17.5684 115.671 17.3196C118.06 16.8761 117.964 13.0693 115.119 13.2025ZM41.9957 38.4354L41.813 35.1838L41.6988 32.7212C41.2118 24.3373 40.7248 17.6996 40.2375 9.31622C39.7801 4.25805 39.3726 2.21596 38.6959 1.36585C38.0127 0.434115 37.0025 0.332219 34.6316 0.481276C33.9165 0.534546 33.2229 0.580485 32.7364 0.983428C31.8165 1.69524 30.7177 5.59321 30.1264 7.1869C28.2469 12.6458 26.3961 18.1194 24.5164 23.5781C23.7285 25.6979 23.0887 27.8704 22.2786 29.9382C21.9074 30.8863 21.5415 32.0274 20.4748 32.2334C19.5427 32.4133 19.1316 31.5407 18.8993 30.9422C18.4918 29.0182 18.155 26.9573 17.735 24.63L15.2003 8.63447C14.9039 6.7561 14.3553 3.16675 13.6251 2.51359C13.0299 1.803 10.3169 1.50782 8.89826 1.96354C6.85061 2.62159 6.79179 6.37344 6.08987 9.08873C4.74901 16.0854 0.526118 37.6972 0.0849548 39.7136C-0.115827 40.6735 0.0374805 41.7509 0.564097 42.1763C1.22549 42.7104 2.42949 42.6037 3.02998 42.1044C3.88452 41.4185 4.15547 39.0402 4.48339 37.3615C5.57969 31.5013 6.80291 23.8031 7.75147 18.0268C8.17989 15.9889 8.33853 13.1529 9.92602 13.2728C11.5313 13.3567 11.596 16.2686 12.2775 19.7524C12.3926 20.5094 13.7543 27.8504 14.4926 31.8987C14.9435 34.2523 15.2156 36.3186 15.9898 37.9975C16.7436 39.5272 18.684 40.6639 20.6575 39.8129C22.8251 38.8777 23.483 35.8247 24.3566 33.5244L30.5444 16.6921L32.6449 10.8581C32.8992 10.2179 33.3007 9.28201 34.2659 9.304C36.051 9.13955 36.2258 12.9877 36.5387 17.8279C36.7823 25.0242 37.0257 30.4745 37.2693 37.6703C37.3911 40.9305 37.0025 43.9408 39.8265 43.9826C40.1467 43.987 40.3994 43.9691 40.6486 43.8873C42.3271 43.3331 42.1346 40.9508 41.9957 38.4354Z" fill="#0F1511"/>
</svg>
